<?xml version="1.0" encoding="UTF-8"?>
<!DOCTYPE svg PUBLIC "-//W3C//DTD SVG 1.1//EN" "http://www.w3.org/Graphics/SVG/1.1/DTD/svg11.dtd">
<!-- Creator: CorelDRAW -->
<svg xmlns="http://www.w3.org/2000/svg" xml:space="preserve" width="3.93701in" height="3.93701in" version="1.1" style="shape-rendering:geometricPrecision; text-rendering:geometricPrecision; image-rendering:optimizeQuality; fill-rule:evenodd; clip-rule:evenodd"
viewBox="0 0 3937.01 3937.01"
 xmlns:xlink="http://www.w3.org/1999/xlink"
 xmlns:xodm="http://www.corel.com/coreldraw/odm/2003">
 <defs>
  <style type="text/css">
   <![CDATA[
    .fil0 {fill:#ED3237;fill-rule:nonzero}
    .fil1 {fill:#2A2929;fill-rule:nonzero}
   ]]>
  </style>
 </defs>
 <g id="Layer_x0020_1">
  <metadata id="CorelCorpID_0Corel-Layer"/>
  <g id="_2717658427712">
   <path class="fil0" d="M1014.24 1287.13c10.78,-2.2 18.69,-3.02 26.07,-5.44 118.26,-39.06 222.94,-101.44 316.38,-183.49 60.15,-52.83 120.94,-104.92 181.69,-157.1 6.36,-5.45 14.36,-9.06 24.65,-15.41 0.48,23.76 -6.12,40.88 -17.14,56.06 -31.95,44.03 -66.94,85.38 -107.94,121.46 -11.3,9.98 -21.87,20.97 -31.59,32.45 -6.75,8.04 -11.49,17.77 -17.12,26.72 14.87,-3.19 27.22,-8.07 39.55,-13.09 67,-27.11 130.48,-60.91 180.15,-114.13 41.78,-44.79 78.99,-93.92 118.49,-140.9 13.98,-16.65 27.89,-33.44 43.4,-48.6 12.46,-12.12 20.33,-8.8 25.18,8.3 1.35,4.68 1.57,10.11 4.17,13.94 3.7,5.48 8.26,11.5 13.9,14.31 15.54,7.69 18.2,13.03 10.54,28.97 -2.86,6 -6.1,11.89 -9.83,17.39 -37.67,54.72 -70.73,112.94 -119.18,160.98 16.52,-3.89 33.43,-7.75 47.78,-16.01 31.96,-18.4 62.59,-39.08 93.92,-58.63 3.81,-2.39 8.37,-3.59 13.45,-5.69 -0.96,17.8 -2,33.56 -2.69,49.33 -0.79,17.88 3.86,21.95 21.41,17.63 6.33,-1.58 12.4,-4.91 18.01,-8.37 9.05,-5.62 17.33,-12.5 26.46,-17.96 25.08,-14.94 49.52,-4.69 53.89,24.15 2.26,14.83 2.1,31.4 -2.13,45.68 -9.93,33.64 -16.32,69.89 -49.01,92.7 5.37,0.78 9.57,0.43 13.52,-0.67 39.72,-10.97 74.53,-32.15 106.22,-57.15 45.75,-36.05 89.21,-74.98 133.76,-112.55 6.44,-5.43 13.47,-10.19 20.21,-15.22 1.32,0.95 2.66,1.89 3.96,2.85 -4.17,18.4 -8.52,36.76 -12.49,55.18 -8.88,40.95 -29.18,77.14 -47.07,114.39 -5.9,12.2 -9.61,25.84 -11.73,39.23 -2.22,13.72 3.91,18.34 17.32,13.88 10.89,-3.59 21.14,-9.28 31.59,-14.15 12.43,-5.81 24.45,-12.95 37.39,-17.33 14.94,-5.05 25.05,2.43 24.6,18.23 -0.5,17.26 -2.6,34.52 -5.43,51.57 -4.1,24.79 1.18,33.62 25.71,38.42 62.14,12.1 124.58,11.26 187.12,3.63 110.04,-13.4 216.04,-42.44 319.01,-83.06 3.71,-1.46 7.01,-4.05 12.73,-7.45 -5.67,-2.23 -8.35,-3.63 -11.16,-4.33 -41.77,-10.22 -83.84,-19.25 -125.24,-30.78 -47.13,-13.15 -92.8,-30.02 -135.17,-55.67 -65.69,-39.76 -118.74,-93.05 -168.14,-150.84 -34.09,-39.92 -69.59,-78.34 -113.15,-108.85 -25.83,-18.14 -49.9,-19.14 -74.76,-1.22 -12.46,8.98 -22.46,8.57 -32.43,-2.92 -3.18,-3.67 -6.84,-6.93 -10.42,-10.24 -21.08,-19.72 -41.28,-40.5 -63.56,-58.81 -27.44,-22.57 -56.7,-42.91 -84.96,-64.54 -19.77,-15.11 -38.7,-31.36 -58.85,-45.91 -22.13,-15.99 -47.81,-14.75 -71.55,-6.89 -37.36,12.41 -64.5,39.63 -89.98,68.91 -15.93,18.33 -34.14,34.79 -52.47,50.82 -9.83,8.61 -21.68,7.91 -33.53,0.86 -13.73,-8.16 -28.02,-15.56 -42.57,-22.21 -11.29,-5.16 -23.59,-6.75 -34.26,1.57 -28.7,22.47 -58.91,43.45 -85.16,68.54 -53.36,51.01 -104.58,104.33 -156.59,156.7 -10.78,10.86 -19.81,9.04 -28.33,-6.61 3.4,-1.39 6.7,-2.78 10.23,-4.26 -10.01,-15.47 -32.36,-17.19 -38.57,-39.91 9.73,2.27 17.02,4 26.31,6.13 -6.77,-8.33 -7.44,-15.19 10.85,-15.14 -18.02,-16.48 -32.43,-29.69 -45.03,-41.22 1.27,-7.51 2.21,-13.05 3.16,-18.61 6.16,-0.52 12.45,-1.06 20.59,-1.75 -11.53,-12.75 -21.54,-23.36 -30.81,-34.53 -2.47,-2.94 -4.48,-8.15 -3.64,-11.58 3.26,-13.15 -8.34,-35.97 -20.35,-40.16 -5.65,16.95 -8.43,35.74 -17.73,50.39 -9.6,15.21 -25.51,26.44 -39.19,39.96 15.22,4.52 15.79,8.54 5.69,19.79 -9.46,10.46 -18.12,21.68 -28.3,33.97 9.24,2.95 16.35,5.24 24.12,7.74 -0.57,5.7 1.18,14.37 -2.34,19.11 -11.68,15.67 -25.27,29.99 -39.59,46.49 -10.85,-18.04 -22.45,-37.27 -33.31,-55.28 -8.17,14.61 -16.24,28.98 -24.98,44.54 8.1,12.16 7.75,11.83 -5.58,24.44 -6.89,6.54 -12.37,14.56 -19.19,22.73 7.72,4.07 15,7.9 23.81,12.57 -8.94,9.66 -18.08,19.57 -27.83,30.1 4.7,0.9 8.75,1.65 16.72,3.11 -9.93,12.27 -18.27,22.56 -25.79,31.82 5.56,0.64 11.82,1.34 21.25,2.42 -13.33,14.72 -23.5,26.03 -35.63,39.44 8.13,-0.66 12.96,-1.04 20.48,-1.66 -9.34,13.46 -5.62,22.23 6.17,29.26 -5.05,6.93 -9.58,13.09 -15.11,20.68l21.69 0c-7.68,22.35 -33.54,24.63 -44.68,46.78z"/>
   <path class="fil0" d="M1927.02 2208.36c-3.45,34.91 -17.48,50.44 -52.53,57.61 -23.13,4.75 -47.19,4.9 -72.65,7.28l0 -151.13c30.47,-0.79 61.8,-3.8 91.63,9.75 28.03,12.73 36.72,44.52 33.55,76.49zm122.31 76.76c21.6,-28.98 29.23,-62.26 29.87,-97.57 0.91,-52.78 -13.29,-100.02 -52.63,-137.3 -36.34,-34.48 -82.07,-44.92 -129.91,-45.89 -64.05,-1.29 -128.2,-0.37 -192.28,-0.06 -16.74,0.1 -33.46,1.42 -51.28,2.24 1.86,190.36 3.69,379.29 5.57,567.52l145.09 0 0 -223.01c3.39,5.53 5.46,8.8 7.43,12.14 39.01,65.57 78.2,131.06 116.85,196.84 5.11,8.7 10.43,12.44 20.87,12.26 33.36,-0.63 66.77,0 100.13,0.1 19.41,0.05 38.8,0.01 60.56,0.01 -51.96,-77.77 -102.83,-153.92 -154.11,-230.68 5.17,-1.53 8.98,-2.7 12.77,-3.82 32.26,-9.55 60.55,-25.16 81.07,-52.78z"/>
   <path class="fil0" d="M2825.83 1647.26c32.82,2.19 65.65,5.28 98.47,6.6 43.39,1.73 80.96,-14 113.67,-41.85 53.02,-45.06 92.57,-100.27 114.89,-165.92 25.11,-73.67 46.07,-148.54 26.89,-227.93 -6.49,-26.93 -14.61,-52.74 -33.52,-75.64 -3.19,4.19 -5.54,7.19 -7.85,10.3 -22.39,29.94 -44.39,60.1 -75.69,82 -64.58,45.11 -134.47,79.98 -207.8,108.18 -134.08,51.55 -273,79.63 -416.65,80.19 -59.84,0.22 -119.88,-4.7 -179.58,-9.86 -50.85,-4.36 -101.55,-11.49 -152.05,-19.15 -57.08,-8.64 -113.9,-19.1 -170.76,-29.04 -82.29,-14.38 -164.25,-30.54 -246.81,-43.15 -88.26,-13.48 -176.7,-27.38 -265.59,-34.45 -110.3,-8.77 -220.36,-0.9 -328.91,23.14 -136.41,30.2 -265.8,78.11 -387.43,147.46 -102.84,58.59 -207.72,113.38 -319.81,152.77 -5.52,1.95 -10.73,4.8 -16.08,7.22 4.18,2.93 7.56,3.48 10.76,2.86 56.25,-10.82 112.68,-21.09 168.73,-32.89 77.13,-16.28 154.8,-27.94 233.71,-29.97 94.61,-2.43 188.24,6.26 281.33,23.02 121.63,21.86 237.18,60.94 347.73,116.11 90.67,45.24 181.68,89.98 273.99,131.73 62.19,28.14 128.94,42.81 196.97,49.39 82.63,8.01 165.3,5.96 247.49,-5.6 55.4,-7.81 110.66,-16.92 165.6,-27.37 18.87,-3.57 36.96,-12.33 54.65,-20.31 4.41,-1.97 9.31,-11.47 7.94,-15.32 -1.62,-4.39 -9.7,-8.05 -15.45,-8.94 -8.66,-1.35 -17.76,0.26 -26.63,0.08 -33.24,-0.68 -66.76,0.59 -99.75,-2.8 -90.62,-9.34 -175.61,-40.22 -259.55,-73.52 -126.51,-50.13 -252.11,-102.41 -378.97,-151.66 -120.86,-46.92 -244.53,-83.74 -374.91,-93.95 -97.02,-7.6 -193.85,-7.41 -290.35,4.5 -61.27,7.56 -122.13,18.46 -183.18,27.77 -5.06,0.76 -10.2,0.8 -15.31,1.19 -0.68,-1.49 -1.39,-3 -2.09,-4.55 4.41,-2.94 8.46,-6.63 13.23,-8.73 65.02,-28.41 132.43,-48.85 202.21,-62.03 76.53,-14.45 153.38,-22.89 231.55,-21.26 94.96,1.99 187.35,18.94 278.74,42.78 107.68,28.08 212.01,66.49 316.48,104.34 106.6,38.62 213.7,75.63 323.85,102.95 99.67,24.66 200.22,45.1 302.59,54.89 52.18,4.99 104.41,10.35 156.71,12.18 52.89,1.84 105.94,0.84 158.82,-1.36 36.26,-1.51 72.54,-6.09 108.47,-11.44 17.45,-2.6 35.13,-8.41 48.78,-26.08 -19.08,-12.17 -37.07,-23.51 -54.83,-35.08 -3.81,-2.46 -7.03,-5.88 -10.55,-8.86l2.77 -4.59c11.03,0.55 22.07,0.95 33.07,1.7z"/>
   <path class="fil0" d="M1944.06 2691.74l167.96 0 0 32.65 -62.98 0 0 139.28 -41.14 0 0 -139.91 -63.85 0 0 -32.02zm209 2.27c13.44,0 26.13,-0.56 38.72,0.52 2.31,0.19 5.7,7.04 5.78,10.87 0.48,28.02 0.24,56.03 0.24,84.05 0,36.47 16.35,51.32 52.82,47.98 23.97,-2.2 33.15,-11.93 33.26,-36 0.13,-33.72 0.02,-67.38 0.02,-101.88 43.93,-3.22 43.93,-3.22 43.93,37.45 0,24.04 0.08,48.04 -0.03,72.04 -0.16,37.54 -12.09,53.85 -48.67,59.37 -28.51,4.28 -57.63,3.75 -85.32,-6.99 -28.24,-10.94 -40.48,-28.59 -40.67,-59.05 -0.22,-35.56 -0.07,-71.09 -0.07,-108.37zm230.68 10.53c6.28,0 11.94,-0.31 17.52,0.06 35.04,2.47 70.02,5.16 105.03,7.69 35.76,2.54 63.18,42.2 52.03,76.23 -5.8,17.7 -20.14,26.2 -39.96,30.06 15.89,24.47 30.73,47.4 47.23,72.85 -17.11,-1.2 -31.87,-1.88 -46.44,-3.66 -3.04,-0.39 -6.16,-4.64 -8.21,-7.8 -12.24,-18.46 -23.84,-37.39 -36.46,-55.57 -2.69,-3.88 -8.71,-6.84 -13.55,-7.55 -11.3,-1.65 -22.83,-1.68 -36.19,-2.51l0 66.62c-14.7,-1.29 -27.4,-2.39 -40.99,-3.58l0 -172.85zm219.37 92.32c6.26,-42.94 24.9,-63.24 61.41,-67.55 13.87,-1.65 28.3,1.09 42.44,2.33 14.15,1.26 28.22,3.59 42.39,4.53 10.69,0.71 16.71,4.12 14.94,16.12 -0.81,5.56 -0.12,11.36 -0.12,19.11 -22.53,-2.52 -43.47,-5.51 -64.5,-6.94 -10.32,-0.7 -21.55,-0.45 -31.08,2.94 -10.83,3.81 -17.61,13.23 -16.23,27.51 37.78,4.27 74.67,8.45 111.52,12.61l0 32.85c-37.33,-3.98 -73.76,-7.9 -110.19,-11.8 -2.06,19.39 11.86,38.11 30.77,41.15 21.44,3.41 43.08,6.18 64.73,7.65 11.59,0.8 17.58,3.6 15.65,16.34 -0.84,5.56 -0.13,11.37 -0.13,18.48 -19.6,-2 -37.96,-3.62 -56.26,-5.79 -14.06,-1.65 -28.34,-2.8 -42.04,-6.19 -54.99,-13.7 -68.53,-67.41 -63.3,-103.35zm209.21 -11.48c4.22,-18.39 18.22,-32.83 36.98,-32.94 22.05,-0.11 44.22,2.74 66.17,5.36 23.35,2.81 46.53,6.91 70.41,10.49l0 32.8c-30.46,-4.26 -59.85,-8.42 -89.3,-12.5 -4.83,-0.68 -10.31,-2.78 -14.42,-1.26 -6.44,2.37 -14.91,6.05 -16.99,11.35 -1.78,4.52 2.65,14.15 7.25,17.79 5.78,4.59 14.4,6.25 22.06,7.63 18.36,3.25 36.98,4.79 55.23,8.43 34.63,6.9 55.45,39.72 46.39,71.67 -6.73,23.66 -26.98,35.77 -54.04,31.96 -36.01,-5.05 -71.88,-10.93 -107.99,-15.05 -10.55,-1.21 -12.58,-5.2 -11.89,-14.08 0.44,-6.09 0.1,-12.25 0.1,-20.39 29.18,3.9 56.67,7.6 84.19,11.17 7.94,1.03 16.04,2.84 23.8,1.98 5.42,-0.66 13.59,-4.3 14.78,-8.3 1.7,-5.8 0.52,-16.07 -3.48,-19.18 -8,-6.17 -18.41,-10.25 -28.43,-12.45 -15.09,-3.29 -30.72,-4.24 -46.11,-6.15 -36.96,-4.56 -62.07,-35.98 -54.69,-68.31zm258.3 30.91c22.39,0.38 39.22,18.46 38.89,41.7 -0.33,22.13 -17.63,38.67 -40.27,38.53 -22.89,-0.12 -40.34,-17.82 -39.96,-40.54 0.37,-22.13 19.1,-40.13 41.34,-39.7zm-1175.05 48.13c-17.1,0 -34.28,0.43 -51.43,-0.43 -3.19,-0.15 -6.74,-5.01 -9.07,-8.43 -22.53,-33.54 -44.85,-67.22 -67.28,-100.85 -2.37,-3.56 -4.9,-7.08 -9.43,-13.59l0 124.89 -40.22 0 0 -174.11c16.8,0 33.14,-0.64 49.38,0.44 4,0.26 8.68,5.44 11.24,9.5 22.54,35.15 44.66,70.54 66.92,105.89 1.69,2.58 3.45,5.09 7.6,11.27l0 -127.42 42.3 0 0 172.84zm-229.57 5.7c-34.89,0.59 -70.13,4.56 -104.6,0.89 -38.89,-4.15 -62.8,-45.44 -56.91,-88.93 7.61,-56.25 36.13,-81.71 93.07,-83.54 22.15,-0.72 44.32,-2.11 67.67,-3.26l0 33.09c-21.38,1.01 -43.02,1.49 -64.5,3.22 -9.54,0.74 -19.68,2.39 -28.08,6.57 -11.49,5.7 -18.76,15.84 -18.33,31.13 37.88,-1.59 74.18,-3.08 111.62,-4.66l0 32.53c-36.87,1.97 -73.92,3.97 -110.82,5.98 -1.24,21.4 15.09,37.62 36.76,36.89 24.35,-0.8 48.7,-2.34 74.14,-3.64l0 33.72zm-221.65 -104.15c-16.56,35.69 -33.52,71.26 -49.69,107.16 -3.85,8.58 -8.2,12.61 -18.06,13.84 -30.9,3.78 -30.82,4.36 -44.54,-23.66 -20.82,-42.56 -41.67,-85.07 -62.41,-127.63 -1.71,-3.47 -3.06,-7.12 -5.31,-12.55 15.32,-1.6 29.22,-3.68 43.18,-4.01 2.86,-0.07 6.9,5.8 8.7,9.71 15.47,33.85 30.48,67.85 45.64,101.81 1.41,3.16 2.94,6.2 5.83,12.24 17.73,-42.52 34.48,-82 50.62,-121.7 3.4,-8.35 7.51,-13.15 17.12,-13.14 11.36,0.04 22.7,-1.19 36.27,-1.98 -9.76,21.42 -18.44,40.73 -27.35,59.91zm-225.22 104.79c-9.63,18.26 -23.55,31.04 -44.54,34.61 -9.15,1.55 -18.35,3.15 -27.59,4.24 -25.47,3.01 -51.02,5.71 -77.6,8.68l0 -173.85c31.19,-3.65 61.88,-8.62 92.73,-10.57 37.81,-2.39 59.9,17.63 67.7,60.35 4.79,26.31 2.02,52.31 -10.7,76.54zm-210.88 55.84c-12.91,4.43 -17.86,-1.1 -20.85,-12.22 -1.27,-4.7 -2.68,-9.89 -5.74,-13.38 -2.82,-3.26 -8.15,-6.68 -11.99,-6.29 -17.62,1.69 -35.19,4.31 -52.61,7.55 -3.91,0.71 -9.67,4.7 -10.27,7.94 -5.08,27.44 -21.75,39.22 -48.77,38.37 -1.65,-0.04 -3.33,0.5 -7.27,1.11 1.8,-5.72 2.94,-10.14 4.57,-14.36 19.81,-51.73 40.13,-103.31 59.32,-155.3 4.28,-11.64 9.59,-16.78 22.4,-17.72 26.65,-1.97 26.61,-2.87 37.44,21.04 19.08,42 38.19,84.03 57.22,126.11 1.79,3.95 3.35,7.99 5.45,13.05 -10.65,1.39 -20.34,1.11 -28.92,4.09zm-221.4 -30.08c-22.76,-0.16 -39.92,-17.89 -39.5,-40.84 0.38,-21.65 18.47,-39.39 40.09,-39.39 22.34,0 40.24,18.1 40.16,40.66 -0.06,22.75 -17.59,39.78 -40.75,39.57zm-78.76 -187.17l0 311.66c811.19,-101.22 1621.86,-101.22 2432.72,-0.06l0 -311.67c-811.12,-100.42 -1621.56,-100.42 -2432.72,0.06z"/>
   <path class="fil0" d="M1157.09 2767.56c-12.84,1.4 -25.74,2.17 -38.47,4.24 -3.16,0.52 -8.13,4.83 -8.16,7.44 -0.56,33.3 -0.37,66.57 -0.37,101.36 16.29,-1.96 31.05,-4.31 45.93,-5.35 13.53,-0.93 22.73,-7.22 27.74,-19.4 9.73,-23.65 9.85,-47.71 0.53,-71.37 -4.61,-11.74 -13.64,-18.4 -27.19,-16.92z"/>
   <path class="fil0" d="M922.26 2868.11c15.41,-2.15 28.31,-3.93 42.6,-5.93 -7.26,-18.6 -13.85,-35.44 -21.66,-55.39 -7.39,21.7 -13.75,40.29 -20.94,61.32z"/>
   <path class="fil0" d="M2508.14 2774.69c2.74,-11.26 -0.37,-21.3 -11.06,-27.42 -4.15,-2.39 -8.87,-4.69 -13.56,-5.17 -18.89,-2.02 -37.85,-3.32 -57.63,-4.94l0 49.73c21.14,0.97 41.06,2.4 60.98,2.5 9.7,0.05 18.72,-4.16 21.28,-14.69z"/>
   <path class="fil1" d="M1334.05 2277.16l0 -140.19c29.57,1.95 58.76,2.3 87.47,6.22 23.66,3.19 37.21,19.53 39.33,43.56 1.04,11.76 1.49,24 -0.52,35.55 -3.93,22.73 -18.85,37.72 -40.84,42.27 -27.49,5.72 -55.63,8.36 -85.44,12.59zm124.4 114.11c60.76,-5.98 107.98,-33.99 135.48,-89.79 23.05,-46.71 26.12,-96.86 15.9,-146.92 -13.02,-63.96 -47.7,-111.92 -113.34,-129.89 -24.06,-6.57 -49.97,-9.19 -75,-8.78 -63.12,1.06 -126.24,4.76 -189.34,7.59 -15,0.65 -29.98,2.03 -46.63,3.22 1.88,190.83 3.75,380.21 5.63,569.28 45.9,-2.36 89.82,-4.93 133.81,-6.69 9.35,-0.38 12.13,-3.34 11.98,-12.52 -0.83,-54.3 -1.2,-108.58 -1.72,-162.91 -0.02,-4.65 0,-9.28 0,-12.9 42.63,-3.3 83,-5.75 123.24,-9.69z"/>
   <path class="fil1" d="M3396.73 2526.62l0 -95.94c60.79,7.48 121.3,14.96 183,22.57 0,-39.48 0.19,-76.81 -0.38,-114.13 -0.06,-3.01 -5.3,-8.08 -8.62,-8.51 -37.77,-5.11 -75.67,-9.42 -113.52,-14.09 -20.52,-2.52 -41.05,-5.28 -62.65,-8.06l0 -98.97c65.48,8.16 129.96,16.17 194.17,24.18l0 -125.24c-116.58,-13.79 -231.7,-27.4 -347.64,-41.13 1.74,191.45 3.49,380.48 5.19,569.9 115.87,13.69 231.01,27.3 346.37,40.96l0 -126.96c-65.38,-8.2 -130,-16.3 -195.9,-24.59z"/>
   <path class="fil1" d="M481.07 2333.3c-20.93,-6.85 -42.57,-11.83 -64.13,-16.55 -23.76,-5.17 -48.25,-7.49 -71.62,-13.96 -38.26,-10.67 -46.57,-48.78 -17.37,-76.18 21.36,-20.06 47.93,-23.8 75.74,-21.09 28.79,2.8 54.61,14.11 79.74,31.36 16.06,-39.64 31.4,-77.55 46.85,-115.7 -60.12,-32.34 -121.83,-37.92 -186.26,-26.57 -96.41,17.01 -177.16,98.32 -177.6,204.28 -0.29,61.46 21.23,101.03 72.4,120.91 20.06,7.78 41.54,12.04 62.6,16.93 28.85,6.72 58.09,11.59 86.72,18.94 15.67,4.07 24.67,16.43 28.09,32.52 7.54,35.43 -12.19,67.36 -50.09,79.42 -44.6,14.21 -83.86,0.52 -120.36,-24.77 -12.25,-8.47 -23.46,-18.49 -36.07,-28.49 -22.72,41.56 -45.19,82.61 -68.73,125.65 17.42,10.88 33.36,22.18 50.46,31.31 52.93,28.32 109.59,30.42 167.28,20.8 49.03,-8.15 93.86,-26.63 130.81,-60.75 59.33,-54.74 79.93,-123.49 67.31,-201.87 -7.22,-45.04 -29.61,-81.05 -75.76,-96.19z"/>
   <path class="fil1" d="M2476.52 2136.94l0 -125.29c-117.34,-3.13 -233.07,-6.2 -349.29,-9.31 1.65,191.96 3.29,380.52 4.89,569.58 117.06,3.21 232.56,6.4 348.24,9.57l0 -127.04c-66.22,-2.31 -131.31,-4.56 -197.35,-6.88l0 -95.93c62.04,1.97 123.15,3.88 184.16,5.79l0 -121.44c-62.47,-2.11 -123.94,-4.2 -185.17,-6.24l0 -99.06c65.8,2.12 130.5,4.2 194.52,6.26z"/>
   <path class="fil1" d="M262.19 2076.51c10.03,-8.89 12.3,-18.6 12.31,-31.48 0.09,-64.05 -0.54,-128.14 2.57,-192.05 5.57,-114.13 27.43,-225.7 60.35,-334.93 94.44,-313.27 268.7,-573.78 522.68,-779.56 262.72,-212.84 564.28,-328.97 901.76,-350.54 117.22,-7.46 233.81,-0.94 349.9,17.67 152.37,24.47 297.83,70.44 436.37,137.91 225.95,110.03 416.3,264.42 568.2,464.65 226.48,298.47 334.32,635.83 325.02,1010.54 -0.36,14.61 -0.07,29.24 -0.07,45.31 17.61,1.65 35.61,3.35 54.42,5.09 39.19,-561.29 -232.92,-1200.26 -850.07,-1539.72 -598.59,-329.29 -1341.25,-250.6 -1858.28,194.09 -132.65,114.14 -244.5,246.04 -335.45,395.59 -90.95,149.55 -155.58,309.79 -195.83,480.01 -37.71,159.74 -56.48,450.33 -32.72,516.56 13.15,-13.41 25.28,-27.12 38.84,-39.14z"/>
   <path class="fil1" d="M938.69 2623.38c50.95,-12.8 96.46,-35.49 128.34,-79.74 31.26,-43.41 39.96,-93.53 40.67,-144.94 1.23,-92.59 0.14,-185.19 0.01,-277.8 -0.04,-29.2 -0.01,-58.43 -0.01,-89.24 -54.2,4.12 -104.84,8.01 -155.56,11.9 -0.25,5.12 -0.5,7.75 -0.5,10.37 0.5,112.17 1.46,224.33 1.19,336.5 -0.05,27.42 -2.37,55.96 -20.12,78.56 -29.24,37.13 -70.29,41.43 -113.45,35.19 -29.04,-4.19 -47,-22 -53.05,-50.5 -3.77,-17.71 -7.43,-35.84 -7.78,-53.82 -1.7,-89 -2.31,-178.02 -3.21,-267.04 -0.2,-23.06 -0.04,-46.12 -0.04,-68.03 -3.52,-1.46 -4.34,-2.15 -5.1,-2.07 -47.71,4.57 -95.44,9.03 -143.07,14.23 -2.59,0.28 -6.39,6.62 -6.48,10.22 -0.6,18.7 -0.46,37.39 -0.03,56.1 2.54,112.49 1.26,225.25 9.12,337.37 7.16,101.84 66.67,145.34 154.74,156.24 58.81,7.25 117.18,0.84 174.34,-13.52z"/>
   <path class="fil1" d="M1349.38 3174.87c23.3,-16.76 45.33,-35.32 67.94,-53.14 -1.01,-2.69 -1.98,-5.33 -2.99,-7.99 -26.02,2 -52.14,3.16 -78.01,6.21 -19.34,2.3 -28.75,-5.05 -33.18,-23.72 -6.42,-27 -14.81,-53.56 -22.35,-80.28 -17.46,29.18 -29.36,57.94 -38.98,87.44 -5.68,17.43 -14.17,25.43 -33.42,25.48 -27.92,0.08 -55.8,3.48 -83.66,5.5l-1.02 8.8c21.11,14.24 41.98,28.9 63.47,42.53 14.01,8.93 17.38,18.69 10.87,34.74 -11.19,27.6 -20.11,56.12 -30.02,84.27 29.48,-14.89 54.88,-32.59 78.56,-52.34 13.15,-10.98 22.71,-10.83 36.23,-0.83 22.35,16.57 46.3,31.03 69.57,46.37 -1.66,-30.61 -7.36,-57.41 -16.13,-83.12 -6.19,-18.13 -1.9,-29.12 13.11,-39.92z"/>
   <path class="fil1" d="M3143.46 2276.96c-11.22,-70.44 -22.8,-140.79 -33.87,-211.26 -1.13,-7.19 -2.69,-10.71 -10.96,-11.4 -45.63,-3.76 -91.12,-8.45 -136.71,-12.11 -3.23,-0.27 -9.04,4.56 -10.07,8.09 -28.83,96.6 -57.32,193.32 -85.46,290.13 -5.54,18.98 -9.5,38.42 -14.57,59.13 -3.01,-13.51 -4.9,-25.34 -8.26,-36.76 -30.84,-105.24 -61.93,-210.42 -92.98,-315.6 -6.33,-21.45 -6.43,-21.35 -29.42,-21.89 -6.67,-0.19 -13.3,-1.11 -19.99,-1.48 -36.33,-2.05 -72.66,-4.01 -110.59,-6.13 -27.69,188.61 -55.29,376.7 -83.03,565.7 49.51,2.35 96.81,4.6 144.87,6.87 14.86,-121.68 29.43,-241.27 44.22,-362.54 1.14,5.41 1.69,9.35 2.78,13.18 33.44,116.87 66.88,233.76 100.64,350.6 0.96,3.29 5.13,7.79 8.12,8.09 32.22,3.03 64.52,5.3 97.95,7.93 33.96,-119.28 67.83,-238.08 101.15,-355.02 3.76,36.5 6.74,75.05 11.89,113.31 10.86,80.85 22.91,161.5 34.33,242.25 1.25,8.82 4.93,12.91 14.53,13.32 17.27,0.7 34.5,2.94 51.76,4.46 26.4,2.35 52.83,4.59 80.52,6.98 -8.19,-50.26 -16.19,-98.67 -23.91,-147.1 -11.07,-69.57 -21.82,-139.17 -32.91,-208.74z"/>
   <path class="fil1" d="M1994.76 3138.43c19.96,-12.73 38.09,-28.33 57.02,-42.67 -1.07,-2.49 -2.15,-5.01 -3.19,-7.5 -24.61,0 -49.34,-1.8 -73.67,0.49 -22.75,2.11 -33.26,-5.23 -37.91,-27.85 -5.18,-24.96 -14.48,-49.03 -21.98,-73.48 -2.8,0.29 -5.63,0.6 -8.45,0.88 -9.88,27.45 -20.9,54.52 -29.19,82.41 -4.79,16.19 -12.41,22.15 -29.28,21.41 -28.62,-1.31 -57.35,-0.37 -86.04,-0.37 15.32,19.09 32.96,31.42 50.22,44.21 41.88,31.08 33.52,21.06 19.82,63.67 -6.3,19.65 -12.53,39.33 -18.82,58.98 2,1.33 4.01,2.65 6,4.01 27.57,-19.33 55.15,-38.67 84.41,-59.17 29.86,20.95 58.6,41.11 93.27,65.44 -8.1,-32.48 -11.46,-58.38 -21.24,-81.56 -10.64,-25.22 -0.3,-36.62 19.02,-48.91z"/>
   <path class="fil1" d="M2307.76 3148.1c23.04,-13.05 44.83,-28.25 67.14,-42.56 -26.32,-8.5 -49.22,-12.57 -71.87,-11.37 -31.38,1.69 -44,-12.78 -48.99,-41.78 -4.04,-23.33 -12.52,-45.86 -19.04,-68.75 -16.58,27.5 -27.89,53.65 -36.28,80.7 -6,19.35 -15.85,25.71 -36.09,24.11 -27.72,-2.15 -55.76,-0.54 -83.62,-0.54 -0.75,2.24 -1.5,4.48 -2.24,6.69 21.54,16.55 42.13,34.48 64.81,49.17 17.76,11.43 19.69,22.6 11.32,40.98 -11.3,24.78 -19.48,50.93 -28.98,76.52 1.83,1.7 3.63,3.38 5.5,5.07 24.19,-16.36 49.3,-31.58 72.28,-49.51 13.91,-10.86 24.29,-9.07 36.34,0.68 23.27,18.73 46.7,37.3 76.85,61.33 -8.66,-36.2 -12.84,-65.15 -22.91,-91.93 -7.86,-20.97 -0.87,-29.43 15.76,-38.83z"/>
   <path class="fil1" d="M2659.2 3169.86c23.59,-11.66 44.29,-29.2 66.24,-44.2 -32.43,-10.06 -61.48,-14.31 -90.69,-15.67 -16.69,-0.78 -24.47,-6.54 -28.48,-22.82 -7.4,-30.05 -16.94,-59.58 -25.56,-89.31 -2.92,0.1 -5.86,0.25 -8.75,0.37 -8.91,25.79 -18.65,51.3 -26.47,77.39 -6.51,21.63 -16.28,31.22 -41.48,27.08 -25.22,-4.13 -51.63,-0.91 -85.08,-0.91 28.5,23.38 50.6,42.28 73.58,60.11 12.67,9.85 16.19,18.7 9.46,35.02 -11.12,26.83 -18.27,55.3 -27.11,83.08 29.05,-11.94 53.07,-25.41 75.17,-41.56 14.94,-10.96 24.97,-9.16 38.44,2.25 23.95,20.39 49.7,38.73 74.65,57.91 -3.15,-31.73 -9.46,-60.13 -19.05,-87.39 -6.89,-19.63 -6.04,-30.9 15.12,-41.35z"/>
   <path class="fil1" d="M1668.09 3149.56c24.17,-17.5 47.26,-36.49 70.82,-54.85 -0.8,-2.47 -1.55,-4.91 -2.33,-7.39 -27.91,1.75 -56.04,1.79 -83.61,5.81 -19.05,2.78 -26.32,-3.3 -30.81,-20.93 -6.85,-26.81 -16.24,-52.94 -24.55,-79.35 -16.4,27.45 -27.99,53.6 -35.1,80.96 -5.43,20.92 -16.02,28.33 -36.62,29.22 -26.87,1.18 -53.65,5.26 -88.98,8.99 27.29,18.76 46.94,33.51 67.83,46.23 15.87,9.69 21.38,19.28 13.61,38.28 -10.6,25.71 -17.31,53.04 -25.69,79.68 28.8,-14.32 52.66,-31.42 74.91,-50.35 12.67,-10.76 22.35,-12.31 36.24,-2.14 22.79,16.7 47.03,31.44 70.67,47 2.08,-1.68 4.14,-3.36 6.25,-5.05 -7.78,-26.24 -14.27,-52.95 -23.81,-78.57 -6.24,-16.85 -3.1,-27.24 11.15,-37.54z"/>
  </g>
 </g>
</svg>
